<?xml version="1.0" encoding="utf-8"?>
<svg xmlns="http://www.w3.org/2000/svg" viewBox="0 0 24 24" fill="#000000"><path d="M21.991,5c0-1.1-0.89-2-1.99-2h-16c-1.1,0-2,0.9-2,2v12c0,1.1,0.9,2,2,2h14l2.789,2.789c0.447,0.447,1.21,0.13,1.21-0.502 L21.991,5z M13,16H8c-0.552,0-1-0.448-1-1c0-0.552,0.448-1,1-1h5c0.552,0,1,0.448,1,1C14,15.552,13.552,16,13,16z M16,12H8 c-0.552,0-1-0.448-1-1c0-0.552,0.448-1,1-1h8c0.552,0,1,0.448,1,1C17,11.552,16.552,12,16,12z M16,8H8C7.448,8,7,7.552,7,7 c0-0.552,0.448-1,1-1h8c0.552,0,1,0.448,1,1C17,7.552,16.552,8,16,8z" fill="#000000"/></svg>
