<?xml version="1.0" encoding="utf-8"?>
<svg xmlns="http://www.w3.org/2000/svg" viewBox="0 0 24 24" fill="#000000"><path d="M 14.650391 2.0058594 C 14.145841 2.0058594 13.641227 2.1947106 13.261719 2.5742188 L 2.5761719 13.263672 C 1.8171557 14.022688 1.8171557 15.281999 2.5761719 16.041016 L 7.9609375 21.425781 C 8.3507709 21.815615 8.8724101 22.000841 9.390625 21.990234 A 1.0001 1.0001 0 0 0 9.5390625 22 L 21 22 A 1.0001 1.0001 0 1 0 21 20 L 12.164062 20 L 21.423828 10.736328 C 22.182844 9.9773121 22.182844 8.7180005 21.423828 7.9589844 L 16.039062 2.5742188 C 15.659554 2.1947106 15.15494 2.0058594 14.650391 2.0058594 z M 9.3203125 9.3457031 L 14.654297 14.679688 L 9.3496094 19.986328 L 4.015625 14.650391 L 9.3203125 9.3457031 z" fill="#000000"/></svg>
