<?xml version="1.0" encoding="utf-8"?>
<!-- Generator: Adobe Illustrator 24.0.0, SVG Export Plug-In . SVG Version: 6.00 Build 0)  -->
<svg version="1.1" id="图层_1" xmlns="http://www.w3.org/2000/svg" xmlns:xlink="http://www.w3.org/1999/xlink" x="0px" y="0px"
	 viewBox="0 0 24 24" style="enable-background:new 0 0 24 24;" xml:space="preserve">
<style type="text/css">
	.st0{fill:url(#SVGID_1_);}
</style>
<linearGradient id="SVGID_1_" gradientUnits="userSpaceOnUse" x1="11.9997" y1="3.0007" x2="11.9997" y2="21.0165">
	<stop  offset="0" style="stop-color:#FC9999"/>
	<stop  offset="1" style="stop-color:#FF1817"/>
</linearGradient>
<path class="st0" d="M16.3,3C13.5,3.1,12,5.1,12,5.1s-1.5-2-4.3-2.1C5.9,2.9,4.2,3.8,3.1,5.3C-0.8,10.4,6.6,16.4,8.3,18
	c1,1,2.3,2.1,3.1,2.8c0.4,0.3,0.9,0.3,1.3,0c0.8-0.7,2-1.8,3.1-2.8c1.7-1.6,9-7.6,5.2-12.7C19.8,3.8,18.1,2.9,16.3,3z"/>
</svg>
