<?xml version="1.0" encoding="utf-8"?>
<!-- Generator: Adobe Illustrator 24.0.0, SVG Export Plug-In . SVG Version: 6.00 Build 0)  -->
<svg version="1.1" id="图层_1" xmlns="http://www.w3.org/2000/svg" xmlns:xlink="http://www.w3.org/1999/xlink" x="0px" y="0px"
	 viewBox="0 0 24 24" style="enable-background:new 0 0 24 24;" xml:space="preserve">
<style type="text/css">
	.st0{fill:url(#SVGID_1_);}
</style>
<linearGradient id="SVGID_1_" gradientUnits="userSpaceOnUse" x1="3.6112" y1="21.7322" x2="18.5842" y2="6.7592">
	<stop  offset="0" style="stop-color:#EE0979"/>
	<stop  offset="1" style="stop-color:#FF6A00"/>
</linearGradient>
<path class="st0" d="M11.7,2.2c-0.4,0-0.8,0.3-0.9,0.8l-0.6,2.4l-2.7,3C7.2,8.8,7,9.3,7,9.8V19c0,1.1,0.9,2,2,2h8
	c0.7,0,1.4-0.4,1.7-1.1l3-6.8c0.2-0.4,0.3-0.8,0.3-1.2V11c0-1.1-0.9-2-2-2h-7c0,0,1-2.4,1-4.1c0-1.6-1-2.3-1.9-2.6
	C12,2.2,11.8,2.2,11.7,2.2z M3.5,9C2.7,9,2,9.7,2,10.5v9C2,20.3,2.7,21,3.5,21S5,20.3,5,19.5v-9C5,9.7,4.3,9,3.5,9z"/>
</svg>
