<?xml version="1.0" encoding="utf-8"?>
<!-- Generator: Adobe Illustrator 24.0.0, SVG Export Plug-In . SVG Version: 6.00 Build 0)  -->
<svg version="1.1" id="图层_1" xmlns="http://www.w3.org/2000/svg" xmlns:xlink="http://www.w3.org/1999/xlink" x="0px" y="0px"
	 viewBox="0 0 24 24" style="enable-background:new 0 0 24 24;" xml:space="preserve">
<style type="text/css">
	.st0{fill:url(#SVGID_1_);}
</style>
<linearGradient id="SVGID_1_" gradientUnits="userSpaceOnUse" x1="12.0005" y1="3" x2="12.0005" y2="21.5867">
	<stop  offset="0" style="stop-color:#00F0C3"/>
	<stop  offset="1" style="stop-color:#15D59B"/>
</linearGradient>
<path class="st0" d="M20,3H4C2.9,3,2,3.9,2,5l0,15.6c0,0.9,1.1,1.3,1.7,0.7L6,19h14c1.1,0,2-0.9,2-2V5C22,3.9,21.1,3,20,3z M9,11
	c0,0.6-0.4,1-1,1s-1-0.4-1-1s0.4-1,1-1S9,10.4,9,11z M13,11c0,0.6-0.4,1-1,1s-1-0.4-1-1s0.4-1,1-1S13,10.4,13,11z M17,11
	c0,0.6-0.4,1-1,1s-1-0.4-1-1s0.4-1,1-1S17,10.4,17,11z"/>
</svg>
