<?xml version="1.0" encoding="utf-8"?>
<!-- Generator: Adobe Illustrator 24.0.0, SVG Export Plug-In . SVG Version: 6.00 Build 0)  -->
<svg version="1.1" id="图层_1" xmlns="http://www.w3.org/2000/svg" xmlns:xlink="http://www.w3.org/1999/xlink" x="0px" y="0px"
	 viewBox="0 0 24 24" style="enable-background:new 0 0 24 24;" xml:space="preserve">
<g>
	<path d="M12,2.2c-0.4,0-0.8,0.2-1,0.7L8.8,8.2L3,8.7c-0.9,0.1-1.3,1.2-0.6,1.8l4.4,3.8L5.5,20c-0.2,0.7,0.4,1.3,1,1.3
		c0.2,0,0.4-0.1,0.5-0.2l5-3l5,3c0.2,0.1,0.4,0.2,0.6,0.2c0.6,0,1.2-0.6,0.9-1.3l-1.3-5.7l4.4-3.8c0.7-0.6,0.3-1.7-0.6-1.8l-5.8-0.5
		L13,2.9C12.8,2.4,12.4,2.2,12,2.2L12,2.2z"/>
</g>
</svg>
