<?xml version="1.0" encoding="utf-8"?>
<svg xmlns="http://www.w3.org/2000/svg" viewBox="0 0 24 24" fill="#000000"><path d="M 12.330078 2.0058594 C 12.04573 1.9942529 11.758047 1.9987656 11.466797 2.0175781 C 7.4516772 2.2782021 4.365081 5.6101695 4.0332031 9.5683594 L 4.0195312 9.5507812 L 3.1777344 19.837891 C 3.0827344 21.002891 4.002875 22 5.171875 22 L 14 22 C 14.552 22 15 21.552 15 21 C 15 20.448 14.552 20 14 20 L 12 20 C 8.686 20 6 17.314 6 14 L 6 13 C 6 11.895 6.895 11 8 11 L 16 11 C 17.105 11 18 11.895 18 13 L 18 16 L 13.912109 16 A 1.5 1.5 0 0 0 12.5 15 A 1.5 1.5 0 0 0 11 16.5 A 1.5 1.5 0 0 0 12.392578 17.994141 A 1.0001 1.0001 0 0 0 12.5 18 L 19 18 L 20 18 C 21.1 18 22 17.1 22 16 L 22 14 C 22 12.9 21.1 12 20 12 L 20 10 C 20 5.6921875 16.5953 2.1799561 12.330078 2.0058594 z" fill="#000000"/></svg>
